<svg width="16" height="21" viewBox="0 0 16 21" fill="none" xmlns="http://www.w3.org/2000/svg">
<path class="baselAlpabet" d="M0.864296 10.6349C0.824296 8.51495 1.0643 6.43495 1.8643 4.67495C3.1843 1.91495 5.3443 0.634949 8.3843 0.634949C11.4243 0.634949 13.5843 1.91495 14.9043 4.67495C15.7043 6.43495 15.9443 8.51495 15.9043 10.6349V11.3949H2.5843C2.5843 12.0349 2.6243 12.6749 2.7043 13.2749C2.8643 14.1949 3.0643 15.0749 3.4643 15.875C4.5443 18.275 6.0643 18.8349 8.3843 18.9149C10.7043 18.8349 13.0643 18.275 14.1843 15.875C14.5443 15.0749 14.7843 14.1949 14.9043 13.2749H15.7843C15.6643 14.4349 15.3843 15.5549 14.9043 16.5949C13.5843 19.3549 11.4243 20.6349 8.3843 20.6349C5.3443 20.6349 3.1843 19.3549 1.8643 16.5949C1.3843 15.5549 1.1043 14.4349 0.984296 13.2749C0.864296 12.3949 0.864296 11.5149 0.864296 10.6349ZM2.5843 9.79495H14.1843C14.1443 8.19495 13.9043 6.67495 13.3043 5.39495C12.2243 2.99495 10.7043 2.43495 8.3843 2.35495C6.0643 2.47495 4.5443 2.99495 3.4643 5.39495C2.8643 6.67495 2.6243 8.19495 2.5843 9.79495Z" fill="white"/>
</svg>
