<svg width="16" height="21" viewBox="0 0 16 21" fill="none" xmlns="http://www.w3.org/2000/svg">
<path class="baselAlpabet" d="M13.6685 8.17601C13.5485 6.97601 13.3085 5.85601 12.8285 4.85601C11.7485 2.45601 10.2285 1.93601 7.90847 1.81601C5.58847 1.93601 4.06847 2.45601 2.98847 4.85601C2.26847 6.37601 2.06847 8.17601 2.10847 10.096C2.06847 12.016 2.26847 13.816 2.98847 15.336C4.06847 17.736 5.58847 18.296 7.90847 18.376C10.2285 18.296 12.5885 17.736 13.7085 15.336C14.0685 14.536 14.3085 13.656 14.4285 12.736H15.3085C15.1885 13.896 14.9085 15.016 14.4285 16.056C13.1085 18.816 10.9485 20.096 7.90847 20.096C4.86847 20.096 2.70847 18.816 1.38847 16.056C0.588466 14.296 0.348466 12.216 0.388466 10.096C0.348466 7.97601 0.588466 5.89601 1.38847 4.13601C2.70847 1.37601 4.86847 0.0960083 7.90847 0.0960083C10.9485 0.0960083 13.1085 1.37601 14.4285 4.13601C14.9885 5.37601 15.2685 6.73601 15.3885 8.17601H13.6685Z" fill="white"/>
</svg>
