<svg width="15" height="26" viewBox="0 0 15 26" fill="none" xmlns="http://www.w3.org/2000/svg">
<path class="baselAlpabet" d="M1.92573 10.0422C1.84573 13.4422 2.56573 16.9222 5.84573 18.0022C6.76573 18.3222 9.60573 19.3222 12.4457 13.9622V6.12217C9.60573 0.762169 6.76573 1.76217 5.84573 2.08217C2.56573 3.16217 1.84573 6.64217 1.92573 10.0422ZM0.205723 10.0422C0.125723 5.72217 1.28573 1.92217 5.28573 0.442169C8.24573 -0.557831 10.3657 1.16217 12.4457 4.56217V1.12217H14.1657V16.5222C14.2457 21.2822 12.5657 25.5622 7.64573 25.5622C3.28573 25.5622 1.36573 22.7222 0.605727 19.8822H2.40573C3.00573 22.3222 4.72573 23.7222 7.64573 23.8822C11.2057 23.8822 12.5257 20.5622 12.4457 16.5222V15.5222C10.3657 18.9222 8.24573 20.6422 5.28573 19.6422C1.28573 18.1622 0.125723 14.3622 0.205723 10.0422Z" fill="white"/>
</svg>
