<svg width="15" height="30" viewBox="0 0 15 30" fill="none" xmlns="http://www.w3.org/2000/svg">
<path class="baselAlpabet" d="M1.85881 18.6689C1.77881 20.6289 2.01881 22.5489 2.73881 24.1089C3.41881 25.5889 4.45882 26.5489 5.97882 27.0689C6.93882 27.3889 9.93882 28.4689 12.9788 22.7889V14.5089C9.93882 8.86893 6.93882 9.90893 5.97882 10.2289C4.45882 10.7489 3.41881 11.7089 2.73881 13.1889C2.01881 14.7489 1.77881 16.6689 1.85881 18.6689ZM0.0188112 18.6689C-0.0211888 16.4689 0.218813 14.2689 1.09881 12.4289C2.01881 10.5489 3.45881 9.22893 5.37881 8.50893C8.53881 7.42892 10.7788 9.30893 12.9788 12.9089V0.508926H14.7788V28.0689H12.9788V24.3889C10.7788 28.0289 8.53881 29.8689 5.37881 28.7889C3.45881 28.0689 2.01881 26.7889 1.09881 24.8689C0.218813 23.0689 -0.0211888 20.8689 0.0188112 18.6689Z" fill="white"/>
</svg>
