<svg width="16" height="22" viewBox="0 0 16 22" fill="none" xmlns="http://www.w3.org/2000/svg">
<path class="baselAlpabet" d="M11.5872 21.096L10.2272 20.176C10.2272 20.176 10.9472 19.096 11.6672 17.296C11.8672 16.816 12.0672 16.296 12.2672 15.696L12.4272 15.536L13.6672 15.136C13.0272 15.856 12.3872 16.616 11.6672 17.296C10.0672 18.936 8.3072 20.336 6.6272 20.336C6.1072 20.336 5.62721 20.256 5.14721 20.176C2.9872 19.696 1.4672 18.176 0.827205 16.056C0.427205 14.616 0.547205 13.336 1.1872 12.256C2.3072 10.296 4.6672 9.73602 4.7472 9.69602L12.8672 7.93602L13.9872 7.65602L14.3472 9.25602L13.3472 9.49602C13.3872 8.93602 13.3472 8.37602 13.3072 7.81602C13.2272 6.85602 13.0272 5.89602 12.7472 4.89602C12.1072 2.81602 11.0672 1.85602 8.34721 1.81602L8.38721 0.136017V1.81602H8.34721C6.26721 1.81602 4.7072 2.33602 3.8272 3.41602C2.5872 4.85601 2.9072 6.85602 2.9072 6.89602L1.2672 7.17602C1.2672 7.05602 0.827205 4.37602 2.5072 2.37601C3.7872 0.856015 5.70721 0.136017 8.38721 0.136017C10.7472 0.176016 13.3072 0.896016 14.3072 4.37602C16.8672 12.976 11.7872 20.776 11.5872 21.096ZM2.4272 15.576C2.8672 17.136 3.9872 18.176 5.5072 18.536C7.7472 19.016 10.2272 17.936 12.2672 15.696C12.8672 13.976 13.3472 11.816 13.3472 9.49602L13.2272 9.53601L5.1072 11.336C5.1072 11.336 3.3872 11.776 2.5872 13.096C2.1872 13.816 2.1472 14.616 2.4272 15.576Z" fill="white"/>
</svg>
