<svg width="16" height="30" viewBox="0 0 16 30" fill="none" xmlns="http://www.w3.org/2000/svg">
<path class="baselAlpabet" d="M15.51 18.6689C15.55 20.8689 15.31 23.0689 14.43 24.8689C13.51 26.7889 12.07 28.0689 10.15 28.7889C6.99 29.8689 4.75 28.0289 2.55 24.3889V28.0689H0.75V0.508926H2.55V12.9089C4.75 9.30893 6.99 7.42892 10.15 8.50893C12.07 9.22893 13.51 10.5489 14.43 12.4289C15.31 14.2689 15.55 16.4689 15.51 18.6689ZM2.55 22.7889C5.59 28.4689 8.59 27.3889 9.55 27.0689C11.07 26.5489 12.11 25.5889 12.79 24.1089C13.51 22.5489 13.75 20.6289 13.67 18.6689C13.75 16.6689 13.51 14.7489 12.79 13.1889C12.11 11.7089 11.07 10.7489 9.55 10.2289C8.59 9.90893 5.59 8.86893 2.55 14.5089V22.7889Z" fill="white"/>
</svg>
