<svg width="885" height="991" viewBox="0 0 885 991" fill="none" xmlns="http://www.w3.org/2000/svg">
<path d="M174.396 543.652C167.823 556.432 162.611 568.648 161.268 582.564C159.744 598.358 155.966 613.752 150.583 628.888C145.224 643.929 145.779 659.622 150.308 674.939C154.809 690.071 161.702 703.992 173.184 715.162C175.671 717.597 178.833 719.875 182.082 720.934C192.797 724.385 203.705 727.481 215.135 727.088C233.82 726.475 252.545 725.999 271.159 724.583C284.398 723.564 297.628 721.504 310.741 719.11C320.98 717.248 330.145 720.125 339.005 723.988C360.386 733.335 371.69 751.171 377.647 772.729C381.734 787.502 384.86 802.562 388.368 817.516C391.313 829.945 398.452 839.092 409.899 844.807C414.027 846.877 418.403 848.478 422.375 850.761C427.674 853.789 432.691 857.225 437.809 860.561C441.559 863.015 442.923 866.758 443.145 871.095C443.582 879.008 444.55 886.93 444.553 894.858C444.585 904.338 447.535 913.021 450.73 921.639C453.576 929.257 459.445 934.887 465.67 939.823C473.458 945.97 481.413 952.058 489.906 957.144C496.887 961.311 504.488 964.751 512.246 967.091C526.925 971.582 541.896 975.135 556.819 978.877C565.484 981.044 573.932 980.521 582.171 976.298C589.01 972.78 596.284 970.133 603.195 966.735C606.823 964.954 690.857 948.114 693.558 948.45C717.71 951.49 741.874 954.483 766.019 957.648C775.65 958.922 785.168 960.826 794.811 962.053C803.966 963.206 813.186 963.716 822.348 964.744C831.492 965.742 839.58 964.063 845.979 956.861C851.194 951.003 857.807 948.263 865.688 947.874C871.74 947.599 877.721 946.521 884.439 945.732L881.699 956.327C879.946 956.639 878.471 957.148 877.006 957.127C865.664 956.985 856.344 961.565 847.779 968.719C844.806 971.2 840.65 972.568 836.789 973.682C816.987 979.303 797.169 976.359 777.357 973.492C766.443 971.889 755.539 970.441 744.625 968.838C741.086 968.313 737.463 967.917 734.071 966.821C717.748 961.732 700.788 961.166 683.954 959.72C673.272 958.784 629.646 974.213 622.896 976.108C622.982 976.459 597.567 982.619 591.214 984.843C583.737 987.488 576.362 990.236 568.218 990.659C558.044 991.196 548.346 989.398 538.733 986.583C528.17 983.526 517.552 980.58 507.038 977.333C496.299 973.976 485.724 970.08 476.482 963.384C467.992 957.209 459.561 950.999 450.987 944.955C446.439 941.765 443.154 937.708 441.027 932.605C438.69 926.941 435.262 921.48 434.153 915.573C432.313 905.833 431.438 895.883 431.064 885.961C430.661 875.169 428.728 865.886 417.241 861.401C412.266 859.47 407.875 856.067 402.883 854.105C391.075 849.488 385.545 839.512 380.435 829.086C378.969 826.128 378.03 822.899 377.049 819.735C371.715 802.921 366.746 785.972 361.078 769.274C357.47 758.726 349.518 751.55 338.856 748.872C327.244 745.951 315.177 744.788 303.38 742.579C296.126 741.23 288.954 739.268 281.72 737.745C278.07 736.963 266.856 735.537 256.224 736.666C248.59 737.473 240.972 738.512 233.32 739.289C213.547 741.27 194.415 738.122 176.194 730.571C169.096 727.64 161.68 724.172 158.985 715.58C158.485 713.984 157.139 712.525 155.869 711.263C149.76 705.09 146.068 697.61 143.465 689.447C141.693 683.853 139.676 678.322 137.779 672.72C132.763 658.013 132.052 643.217 136.951 628.287C138.715 622.938 140.603 617.596 142.081 612.174C143.681 606.278 145.527 600.317 146.2 594.284C150.008 559.268 164.246 528.999 187.167 502.496C187.846 501.733 188.632 500.946 188.961 500.068C193.05 488.957 201.604 480.965 208.537 471.798C223.773 451.686 230.487 429.445 221.814 404.862C218.273 394.838 213.253 385.043 207.171 376.319C194.637 358.244 181.12 340.83 167.711 323.392C154.556 306.248 143.841 287.701 134.497 268.265C119.658 237.342 104.61 206.543 89.6815 175.673C84.3262 164.627 79.3299 153.37 73.7054 142.483C69.0013 133.428 64.2743 124.266 58.3614 115.965C48.8091 102.528 41.3438 87.9795 34.4046 73.1602C29.6028 62.9148 25.0755 52.5878 20.5605 42.2132C17.7121 35.6844 14.8937 29.1378 12.0155 22.6266C9.74571 17.4869 7.73286 12.2356 2.95572 8.6576C1.80724 7.80649 1.26021 6.19752 0.0369248 4.26352C2.81564 3.02443 5.20014 1.93772 8.12841 0.610266C20.325 23.0309 40.9956 42.3773 43.0827 48.0276C45.618 54.9829 48.0337 62.0089 51.1304 68.7533C63.4911 96.0281 75.7444 123.326 88.6612 150.313C109.668 194.135 131.07 237.806 152.573 281.375C156.341 289.051 161.359 296.11 165.79 303.475C166.327 303.359 166.864 303.243 167.418 303.157L191.071 324.204C195.004 329.085 199.555 333.441 203.5 338.275C205.234 340.39 205.902 343.297 207.444 345.566C214.602 356.11 221.998 366.513 229.054 377.158C230.843 379.844 231.835 383.163 232.709 386.35C234.741 393.683 237.16 400.988 238.191 408.47C241.648 433.72 235.792 456.662 219.946 476.972C215.116 483.207 210.894 489.927 206.543 496.564M175.992 540.616L303.865 738.55Z" fill="black"/>
</svg>
