<svg width="692" height="932" viewBox="0 0 692 932" fill="none" xmlns="http://www.w3.org/2000/svg">
<path d="M139.693 177.916C140.071 198.691 137.804 219.466 129.494 236.464C120.806 254.595 107.208 266.683 89.0768 273.482C59.2359 283.681 38.0828 266.305 17.3075 231.932V266.683H0.30957V6.42506H17.3075V123.522C38.0828 89.5263 59.2359 71.7728 89.0768 81.9716C107.208 88.7708 120.806 101.236 129.494 118.989C137.804 136.365 140.071 157.14 139.693 177.916ZM17.3075 216.822C46.0152 270.46 74.3452 260.261 83.4108 257.24C97.7646 252.329 107.586 243.263 114.007 229.287C120.806 214.556 123.073 196.425 122.317 177.916C123.073 159.029 120.806 140.898 114.007 126.166C107.586 112.19 97.7646 103.125 83.4108 98.2141C74.3452 95.1923 46.0152 85.3712 17.3075 138.632V216.822Z" fill="black"/>
<path d="M273.871 276.882L261.028 268.194C261.028 268.194 267.827 257.995 274.626 240.997C276.515 236.464 278.404 231.554 280.292 225.888L281.803 224.377L293.513 220.6C287.469 227.399 281.425 234.576 274.626 240.997C259.517 256.484 242.897 269.705 227.032 269.705C222.121 269.705 217.589 268.949 213.056 268.194C192.658 263.661 178.304 249.307 172.261 229.287C168.483 215.689 169.616 203.602 175.66 193.403C186.237 174.894 208.523 169.606 209.278 169.228L285.958 152.608L296.535 149.964L299.934 165.073L290.491 167.339C290.869 162.051 290.491 156.763 290.113 151.474C289.358 142.409 287.469 133.343 284.825 123.9C278.781 104.258 268.96 95.1923 243.274 94.8145L243.652 78.9498V94.8145H243.274C223.632 94.8145 208.901 99.725 200.591 109.924C188.881 123.522 191.903 142.409 191.903 142.787L176.416 145.431C176.416 144.298 172.261 118.989 188.125 100.103C200.213 85.7489 218.344 78.9498 243.652 78.9498C265.938 79.3275 290.113 86.1267 299.557 118.989C323.731 200.202 275.759 273.86 273.871 276.882ZM187.37 224.755C191.525 239.486 202.101 249.307 216.455 252.707C237.608 257.24 261.028 247.041 280.292 225.888C285.958 209.645 290.491 189.248 290.491 167.339L289.358 167.717L212.678 184.715C212.678 184.715 196.436 188.87 188.881 201.335C185.104 208.134 184.726 215.689 187.37 224.755Z" fill="black"/>
<path d="M403.587 267.816C377.901 267.816 359.014 261.017 348.06 247.419C334.084 230.043 337.106 211.912 337.106 210.778L352.97 211.156C352.97 211.156 350.326 226.266 359.392 237.598C367.324 247.419 381.678 252.329 402.453 252.329C422.473 252.329 436.827 247.796 444.759 238.731C453.07 229.665 452.314 219.089 452.314 217.578C452.314 216.444 451.559 208.89 445.893 201.713C424.362 173.761 375.634 198.691 347.682 166.584C335.217 152.23 337.106 135.232 337.106 132.966C337.106 131.077 338.994 118.612 347.304 106.524C355.237 94.4368 371.479 80.083 402.453 80.083C433.805 80.083 450.048 95.1923 457.98 107.657C467.046 121.256 467.801 136.365 467.801 136.743H453.447C453.447 136.743 452.314 125.789 445.515 115.59C436.827 102.369 422.473 95.57 403.587 95.57C384.7 95.57 370.724 101.991 362.036 114.457C355.614 123.9 354.481 133.721 354.481 134.099C354.481 135.61 352.97 146.564 361.28 156.007C384.7 184.715 431.916 153.741 460.624 192.27C468.557 203.224 469.312 213.8 469.312 216.444C469.69 219.466 470.068 235.331 457.98 248.552C447.026 261.395 428.517 267.816 403.587 267.816Z" fill="black"/>
<path d="M499.404 173.383C499.026 153.363 501.292 133.721 508.847 117.101C521.312 91.0372 541.71 78.9498 570.418 78.9498C599.125 78.9498 619.523 91.0372 631.988 117.101C639.543 133.721 641.809 153.363 641.431 173.383V180.56H515.646C515.646 186.604 516.024 192.647 516.779 198.313C518.29 207.001 520.179 215.311 523.956 222.866C534.155 245.53 548.509 250.818 570.418 251.574C592.326 250.818 614.612 245.53 625.189 222.866C628.588 215.311 630.855 207.001 631.988 198.313H640.298C639.165 209.268 636.521 219.844 631.988 229.665C619.523 255.729 599.125 267.816 570.418 267.816C541.71 267.816 521.312 255.729 508.847 229.665C504.314 219.844 501.67 209.268 500.537 198.313C499.404 190.003 499.404 181.693 499.404 173.383ZM515.646 165.451H625.189C624.811 150.341 622.545 135.987 616.879 123.9C606.68 101.236 592.326 95.9477 570.418 95.1923C548.509 96.3255 534.155 101.236 523.956 123.9C518.29 135.987 516.024 150.341 515.646 165.451Z" fill="black"/>
<path d="M675.448 267.438V0.381348H691.69V267.438H675.448Z" fill="black"/>
<path d="M111.155 455.675C98.6898 456.053 81.3141 463.608 63.9384 496.47V619.989H47.6959V442.077H63.9384V481.739C78.2922 457.942 93.0238 442.832 111.155 440.566V455.675Z" fill="black"/>
<path d="M237.35 618.856C237.728 618.1 271.346 526.689 248.304 477.206C242.261 463.985 232.817 455.297 219.219 450.765C210.531 447.743 184.09 438.299 157.649 487.405V619.989H141.406V352.932H157.649V474.184C176.913 442.077 196.555 425.834 224.507 435.278C241.883 441.699 254.726 453.409 263.036 470.407C288.722 525.933 253.97 620.367 252.459 624.522L237.35 618.856Z" fill="black"/>
<path d="M307.517 619.989V431.5H323.759V619.989H307.517ZM306.384 375.974C306.384 370.685 310.161 366.908 315.827 366.908C321.115 366.908 324.893 370.685 324.893 375.974C324.893 381.64 321.115 385.417 315.827 385.417C310.161 385.417 306.384 381.64 306.384 375.974Z" fill="black"/>
<path d="M455.745 618.856C456.122 618.1 489.741 526.689 466.699 477.206C460.655 463.985 451.212 455.297 437.613 450.765C428.926 447.743 402.107 438.3 375.288 488.916V619.989H359.045V442.077H375.288V474.184C394.93 442.077 414.949 425.834 442.902 435.278C460.277 441.699 473.12 453.409 481.43 470.407C507.116 525.933 472.365 620.367 470.854 624.522L455.745 618.856Z" fill="black"/>
<path d="M520.983 525.933C520.605 505.914 522.872 486.272 530.426 469.651C542.892 443.588 563.289 431.5 591.997 431.5C620.705 431.5 641.102 443.588 653.567 469.651C661.122 486.272 663.388 505.914 663.011 525.933V533.11H537.226C537.226 539.154 537.603 545.198 538.359 550.864C539.87 559.552 541.758 567.862 545.536 575.416C555.735 598.08 570.088 603.369 591.997 604.124C613.905 603.369 636.192 598.08 646.768 575.416C650.168 567.862 652.434 559.552 653.567 550.864H661.878C660.744 561.818 658.1 572.395 653.567 582.216C641.102 608.279 620.705 620.367 591.997 620.367C563.289 620.367 542.892 608.279 530.426 582.216C525.894 572.395 523.25 561.818 522.116 550.864C520.983 542.554 520.983 534.244 520.983 525.933ZM537.226 518.001H646.768C646.391 502.892 644.124 488.538 638.458 476.45C628.259 453.787 613.905 448.498 591.997 447.743C570.088 448.876 555.735 453.787 545.536 476.45C539.87 488.538 537.603 502.892 537.226 518.001Z" fill="black"/>
<path d="M102.765 922.553C77.0793 922.553 58.1927 915.754 47.2384 902.155C33.2623 884.78 36.2842 866.648 36.2842 865.515L52.149 865.893C52.149 865.893 49.5048 881.002 58.5704 892.334C66.5028 902.155 80.8567 907.066 101.632 907.066C121.652 907.066 136.006 902.533 143.938 893.468C152.248 884.402 151.493 873.825 151.493 872.314C151.493 871.181 150.737 863.627 145.071 856.45C123.54 828.497 74.8129 853.428 46.8607 821.321C34.3955 806.967 36.2842 789.969 36.2842 787.702C36.2842 785.814 38.1728 773.349 46.483 761.261C54.4154 749.174 70.6579 734.82 101.632 734.82C132.984 734.82 149.226 749.929 157.159 762.394C166.224 775.993 166.98 791.102 166.98 791.48H152.626C152.626 791.48 151.493 780.525 144.694 770.327C136.006 757.106 121.652 750.307 102.765 750.307C83.8785 750.307 69.9024 756.728 61.2146 769.193C54.7931 778.637 53.6599 788.458 53.6599 788.836C53.6599 790.346 52.149 801.301 60.4591 810.744C83.8785 839.452 131.095 808.478 159.803 847.006C167.735 857.961 168.491 868.537 168.491 871.181C168.868 874.203 169.246 890.068 157.159 903.289C146.204 916.131 127.696 922.553 102.765 922.553Z" fill="black"/>
<path d="M302.459 931.619L289.616 922.931C289.616 922.931 296.415 912.732 303.214 895.734C305.103 891.201 306.992 886.291 308.88 880.625L310.391 879.114L322.101 875.336C316.057 882.136 310.014 889.312 303.214 895.734C288.105 911.221 271.485 924.442 255.62 924.442C250.71 924.442 246.177 923.686 241.644 922.931C221.246 918.398 206.892 904.044 200.849 884.024C197.071 870.426 198.205 858.338 204.248 848.14C214.825 829.631 237.111 824.342 237.867 823.965L314.546 807.344L325.123 804.7L328.522 819.81L319.079 822.076C319.457 816.788 319.079 811.499 318.701 806.211C317.946 797.146 316.057 788.08 313.413 778.637C307.369 758.995 297.548 749.929 271.863 749.551L272.24 733.687V749.551H271.863C252.22 749.551 237.489 754.462 229.179 764.661C217.469 778.259 220.491 797.146 220.491 797.523L205.004 800.167C205.004 799.034 200.849 773.726 216.714 754.84C228.801 740.486 246.932 733.687 272.24 733.687C294.527 734.064 318.701 740.863 328.145 773.726C352.32 854.939 304.348 928.597 302.459 931.619ZM215.958 879.491C220.113 894.223 230.69 904.044 245.044 907.444C266.197 911.976 289.616 901.778 308.88 880.625C314.546 864.382 319.079 843.985 319.079 822.076L317.946 822.454L241.266 839.452C241.266 839.452 225.024 843.607 217.469 856.072C213.692 862.871 213.314 870.426 215.958 879.491Z" fill="black"/>
<path d="M462.016 921.042C462.393 920.287 496.012 828.875 472.97 779.392C466.926 766.172 457.483 757.484 443.884 752.951C435.197 749.929 408.378 740.486 381.559 791.102V922.175H365.316V744.263H381.559V776.37C401.201 744.263 421.22 728.021 449.173 737.464C466.548 743.885 479.391 755.595 487.701 772.593C513.387 828.12 478.636 922.553 477.125 926.708L462.016 921.042Z" fill="black"/>
<path d="M594.113 922.553C568.427 922.553 549.54 915.754 538.586 902.155C524.61 884.78 527.632 866.648 527.632 865.515L543.497 865.893C543.497 865.893 540.853 881.002 549.918 892.334C557.85 902.155 572.204 907.066 592.98 907.066C612.999 907.066 627.353 902.533 635.286 893.468C643.596 884.402 642.84 873.825 642.84 872.314C642.84 871.181 642.085 863.627 636.419 856.45C614.888 828.497 566.161 853.428 538.208 821.321C525.743 806.967 527.632 789.969 527.632 787.702C527.632 785.814 529.521 773.349 537.831 761.261C545.763 749.174 562.006 734.82 592.98 734.82C624.331 734.82 640.574 749.929 648.506 762.394C657.572 775.993 658.327 791.102 658.327 791.48H643.974C643.974 791.48 642.84 780.525 636.041 770.327C627.353 757.106 612.999 750.307 594.113 750.307C575.226 750.307 561.25 756.728 552.562 769.193C546.141 778.637 545.008 788.458 545.008 788.836C545.008 790.346 543.497 801.301 551.807 810.744C575.226 839.452 622.443 808.478 651.151 847.006C659.083 857.961 659.838 868.537 659.838 871.181C660.216 874.203 660.594 890.068 648.506 903.289C637.552 916.131 619.043 922.553 594.113 922.553Z" fill="black"/>
</svg>
